<svg width="0" height="0" class="hidden">
  <symbol xmlns="http://www.w3.org/2000/svg" viewBox="0 0 24 24" id="call">
    <path d="M21.97 18.33C21.97 18.69 21.89 19.06 21.72 19.42C21.55 19.78 21.33 20.12 21.04 20.44C20.55 20.98 20.01 21.37 19.4 21.62C18.8 21.87 18.15 22 17.45 22C16.43 22 15.34 21.76 14.19 21.27C13.04 20.78 11.89 20.12 10.75 19.29C9.6 18.45 8.51 17.52 7.47 16.49C6.44 15.45 5.51 14.36 4.68 13.22C3.86 12.08 3.2 10.94 2.72 9.81C2.24 8.67 2 7.58 2 6.54C2 5.86 2.12 5.21 2.36 4.61C2.6 4 2.98 3.44 3.51 2.94C4.15 2.31 4.85 2 5.59 2C5.87 2 6.15 2.06 6.4 2.18C6.66 2.3 6.89 2.48 7.07 2.74L9.39 6.01C9.57 6.26 9.7 6.49 9.79 6.71C9.88 6.92 9.93 7.13 9.93 7.32C9.93 7.56 9.86 7.8 9.72 8.03C9.59 8.26 9.4 8.5 9.16 8.74L8.4 9.53C8.29 9.64 8.24 9.77 8.24 9.93C8.24 10.01 8.25 10.08 8.27 10.16C8.3 10.24 8.33 10.3 8.35 10.36C8.53 10.69 8.84 11.12 9.28 11.64C9.73 12.16 10.21 12.69 10.73 13.22C11.27 13.75 11.79 14.24 12.32 14.69C12.84 15.13 13.27 15.43 13.61 15.61C13.66 15.63 13.72 15.66 13.79 15.69C13.87 15.72 13.95 15.73 14.04 15.73C14.21 15.73 14.34 15.67 14.45 15.56L15.21 14.81C15.46 14.56 15.7 14.37 15.93 14.25C16.16 14.11 16.39 14.04 16.64 14.04C16.83 14.04 17.03 14.08 17.25 14.17C17.47 14.26 17.7 14.39 17.95 14.56L21.26 16.91C21.52 17.09 21.7 17.3 21.81 17.55C21.91 17.8 21.97 18.05 21.97 18.33Z" stroke-width="1.5" stroke-miterlimit="10"></path>
  </symbol>
  <symbol fill="none" xmlns="http://www.w3.org/2000/svg" viewBox="0 0 16 16" id="cpu-charge">
    <path d="M6.39984 13.3327H9.59984C12.2665 13.3327 13.3332 12.266 13.3332 9.59935V6.39935C13.3332 3.73268 12.2665 2.66602 9.59984 2.66602H6.39984C3.73317 2.66602 2.6665 3.73268 2.6665 6.39935V9.59935C2.6665 12.266 3.73317 13.3327 6.39984 13.3327Z" stroke="#173D33" stroke-linecap="round" stroke-linejoin="round"></path>
    <path d="M6.99984 11.3327H8.99984C10.6665 11.3327 11.3332 10.666 11.3332 8.99935V6.99935C11.3332 5.33268 10.6665 4.66602 8.99984 4.66602H6.99984C5.33317 4.66602 4.6665 5.33268 4.6665 6.99935V8.99935C4.6665 10.666 5.33317 11.3327 6.99984 11.3327Z" stroke="#173D33" stroke-linecap="round" stroke-linejoin="round"></path>
    <path d="M5.33984 2.66732V1.33398" stroke="#173D33" stroke-linecap="round" stroke-linejoin="round"></path>
    <path d="M8 2.66732V1.33398" stroke="#173D33" stroke-linecap="round" stroke-linejoin="round"></path>
    <path d="M10.6665 2.66732V1.33398" stroke="#173D33" stroke-linecap="round" stroke-linejoin="round"></path>
    <path d="M13.3335 5.33398H14.6668" stroke="#173D33" stroke-linecap="round" stroke-linejoin="round"></path>
    <path d="M13.3335 8H14.6668" stroke="#173D33" stroke-linecap="round" stroke-linejoin="round"></path>
    <path d="M13.3335 10.666H14.6668" stroke="#173D33" stroke-linecap="round" stroke-linejoin="round"></path>
    <path d="M10.6665 13.334V14.6673" stroke="#173D33" stroke-linecap="round" stroke-linejoin="round"></path>
    <path d="M8.00684 13.334V14.6673" stroke="#173D33" stroke-linecap="round" stroke-linejoin="round"></path>
    <path d="M5.33984 13.334V14.6673" stroke="#173D33" stroke-linecap="round" stroke-linejoin="round"></path>
    <path d="M1.3335 5.33398H2.66683" stroke="#173D33" stroke-linecap="round" stroke-linejoin="round"></path>
    <path d="M1.3335 8H2.66683" stroke="#173D33" stroke-linecap="round" stroke-linejoin="round"></path>
    <path d="M1.3335 10.666H2.66683" stroke="#173D33" stroke-linecap="round" stroke-linejoin="round"></path>
    <path d="M8.00014 6.4668L7.37347 7.56013C7.23347 7.80013 7.34681 8.00013 7.62681 8.00013H8.37347C8.65347 8.00013 8.76681 8.20013 8.62681 8.44013L8.00014 9.53346" stroke="#173D33" stroke-linecap="round" stroke-linejoin="round"></path>
  </symbol>
  <symbol xmlns="http://www.w3.org/2000/svg" viewBox="0 0 24 24" id="facebook">
    <path d="M14 9.3V12.2H16.6C16.8 12.2 16.9 12.4 16.9 12.6L16.5 14.5C16.5 14.6 16.3 14.7 16.2 14.7H14V22H11V14.8H9.3C9.1 14.8 9 14.7 9 14.5V12.6C9 12.4 9.1 12.3 9.3 12.3H11V9C11 7.3 12.3 6 14 6H16.7C16.9 6 17 6.1 17 6.3V8.7C17 8.9 16.9 9 16.7 9H14.3C14.1 9 14 9.1 14 9.3Z" ></path>
    <path d="M15 22H9C4 22 2 20 2 15V9C2 4 4 2 9 2H15C20 2 22 4 22 9V15C22 20 20 22 15 22Z" stroke-width="1.5" stroke-linecap="round" stroke-linejoin="round"></path>
  </symbol>
  <symbol fill="none" xmlns="http://www.w3.org/2000/svg" viewBox="0 0 16 16" id="global-edit">
    <path d="M14.6668 8.00065C14.6668 4.32065 11.6802 1.33398 8.00016 1.33398C4.32016 1.33398 1.3335 4.32065 1.3335 8.00065C1.3335 11.6807 4.32016 14.6673 8.00016 14.6673" stroke="#173D33" stroke-linecap="round" stroke-linejoin="round"></path>
    <path d="M5.33372 2H6.00039C4.70039 5.89333 4.70039 10.1067 6.00039 14H5.33372" stroke="#173D33" stroke-linecap="round" stroke-linejoin="round"></path>
    <path d="M10 2C10.6467 3.94667 10.9733 5.97333 10.9733 8" stroke="#173D33" stroke-linecap="round" stroke-linejoin="round"></path>
    <path d="M2 10.6667V10C3.94667 10.6467 5.97333 10.9733 8 10.9733" stroke="#173D33" stroke-linecap="round" stroke-linejoin="round"></path>
    <path d="M2 6.00039C5.89333 4.70039 10.1067 4.70039 14 6.00039" stroke="#173D33" stroke-linecap="round" stroke-linejoin="round"></path>
    <path d="M12.8065 10.4933L10.4465 12.8534C10.3532 12.9467 10.2665 13.12 10.2465 13.2467L10.1199 14.1467C10.0732 14.4733 10.2999 14.7 10.6265 14.6533L11.5265 14.5267C11.6532 14.5067 11.8332 14.42 11.9199 14.3267L14.2799 11.9667C14.6865 11.56 14.8799 11.0867 14.2799 10.4867C13.6865 9.89334 13.2132 10.0867 12.8065 10.4933Z" stroke="#173D33" stroke-miterlimit="10" stroke-linecap="round" stroke-linejoin="round"></path>
    <path d="M12.4663 10.834C12.6663 11.554 13.2263 12.114 13.9463 12.314" stroke="#173D33" stroke-miterlimit="10" stroke-linecap="round" stroke-linejoin="round"></path>
  </symbol>
  <symbol xmlns="http://www.w3.org/2000/svg" viewBox="0 0 24 24" id="instagram">
    <path d="M9 22H15C20 22 22 20 22 15V9C22 4 20 2 15 2H9C4 2 2 4 2 9V15C2 20 4 22 9 22Z" stroke-width="1.5" stroke-linecap="round" stroke-linejoin="round"></path>
    <path d="M12 15.5C13.933 15.5 15.5 13.933 15.5 12C15.5 10.067 13.933 8.5 12 8.5C10.067 8.5 8.5 10.067 8.5 12C8.5 13.933 10.067 15.5 12 15.5Z" stroke-width="1.5" stroke-linecap="round" stroke-linejoin="round"></path>
    <path d="M17.6361 7H17.6477" stroke-width="2" stroke-linecap="round" stroke-linejoin="round"></path>
  </symbol>
  <symbol xmlns="http://www.w3.org/2000/svg" viewBox="0 0 24 24" id="map">
    <path d="M2.29004 7.77998V17.51C2.29004 19.41 3.64004 20.19 5.28004 19.25L7.63004 17.91C8.14004 17.62 8.99004 17.59 9.52004 17.86L14.77 20.49C15.3 20.75 16.15 20.73 16.66 20.44L20.99 17.96C21.54 17.64 22 16.86 22 16.22V6.48998C22 4.58998 20.65 3.80998 19.01 4.74998L16.66 6.08998C16.15 6.37998 15.3 6.40998 14.77 6.13998L9.52004 3.51998C8.99004 3.25998 8.14004 3.27998 7.63004 3.56998L3.30004 6.04998C2.74004 6.36998 2.29004 7.14998 2.29004 7.77998Z" stroke-width="1.5" stroke-linecap="round" stroke-linejoin="round"></path>
    <path d="M8.56006 4V17" stroke-width="1.5" stroke-linecap="round" stroke-linejoin="round"></path>
    <path d="M15.73 6.61914V19.9991" stroke-width="1.5" stroke-linecap="round" stroke-linejoin="round"></path>
  </symbol>
  <symbol fill="none" xmlns="http://www.w3.org/2000/svg" viewBox="0 0 16 16" id="maximize-circle">
    <path d="M11.3335 2H14.0002V4.66667" stroke="#173D33" stroke-linecap="round" stroke-linejoin="round"></path>
    <path d="M10 6L14 2" stroke="#173D33" stroke-linecap="round" stroke-linejoin="round"></path>
    <path d="M4.66667 14.0007H2V11.334" stroke="#173D33" stroke-linecap="round" stroke-linejoin="round"></path>
    <path d="M6 10L2 14" stroke="#173D33" stroke-linecap="round" stroke-linejoin="round"></path>
    <path d="M9.34684 1.46733C8.91351 1.38066 8.46016 1.33398 8.00016 1.33398C4.32016 1.33398 1.3335 4.32065 1.3335 8.00065C1.3335 8.46065 1.38017 8.90732 1.46684 9.33398" stroke="#173D33" stroke-linecap="round" stroke-linejoin="round"></path>
    <path d="M6.65332 14.5327C7.08665 14.6193 7.54 14.666 8 14.666C11.68 14.666 14.6667 11.6793 14.6667 7.99935C14.6667 7.54602 14.62 7.09935 14.5333 6.66602" stroke="#173D33" stroke-linecap="round" stroke-linejoin="round"></path>
  </symbol>
  <symbol fill="none" xmlns="http://www.w3.org/2000/svg" viewBox="0 0 16 16" id="ranking">
    <path d="M5.78016 9.33398H2.66683C1.9335 9.33398 1.3335 9.93398 1.3335 10.6673V14.6673H5.78016V9.33398Z" stroke="#173D33" stroke-miterlimit="10" stroke-linecap="round" stroke-linejoin="round"></path>
    <path d="M8.88677 6.66602H7.10677C6.37344 6.66602 5.77344 7.26602 5.77344 7.99935V14.666H10.2201V7.99935C10.2201 7.26602 9.62677 6.66602 8.88677 6.66602Z" stroke="#173D33" stroke-miterlimit="10" stroke-linecap="round" stroke-linejoin="round"></path>
    <path d="M13.3335 11.334H10.2202V14.6673H14.6669V12.6673C14.6669 11.934 14.0669 11.334 13.3335 11.334Z" stroke="#173D33" stroke-miterlimit="10" stroke-linecap="round" stroke-linejoin="round"></path>
    <path d="M8.34682 1.37988L8.70015 2.08655C8.74682 2.18655 8.87349 2.27988 8.98015 2.29321L9.62015 2.39988C10.0268 2.46655 10.1268 2.76653 9.83349 3.0532L9.33349 3.5532C9.24682 3.63987 9.20015 3.79987 9.22682 3.91321L9.36682 4.52655C9.48015 5.01322 9.22015 5.19989 8.79349 4.94655L8.19349 4.59322C8.08682 4.52655 7.90682 4.52655 7.80015 4.59322L7.20015 4.94655C6.77349 5.19989 6.51349 5.01322 6.62682 4.52655L6.76682 3.91321C6.79349 3.79987 6.74682 3.6332 6.66015 3.5532L6.16682 3.05987C5.87349 2.76654 5.96682 2.4732 6.38015 2.40653L7.02015 2.29989C7.12682 2.27989 7.25349 2.18655 7.30015 2.09322L7.65349 1.38653C7.84682 0.999868 8.15349 0.999882 8.34682 1.37988Z" stroke="#173D33" stroke-linecap="round" stroke-linejoin="round"></path>
  </symbol>
  <symbol xmlns="http://www.w3.org/2000/svg" viewBox="0 0 24 24" id="sms">
    <path d="M17 20.5H7C4 20.5 2 19 2 15.5V8.5C2 5 4 3.5 7 3.5H17C20 3.5 22 5 22 8.5V15.5C22 19 20 20.5 17 20.5Z"  stroke-width="1.5" stroke-miterlimit="10" stroke-linecap="round" stroke-linejoin="round"></path>
    <path d="M17 9L13.87 11.5C12.84 12.32 11.15 12.32 10.12 11.5L7 9" stroke-width="1.5" stroke-miterlimit="10" stroke-linecap="round" stroke-linejoin="round"></path>
  </symbol>
    <symbol xmlns="http://www.w3.org/2000/svg" viewBox="0 0 24 24" id="facebook2">
    <path d="M14 9.3V12.2H16.6C16.8 12.2 16.9 12.4 16.9 12.6L16.5 14.5C16.5 14.6 16.3 14.7 16.2 14.7H14V22H11V14.8H9.3C9.1 14.8 9 14.7 9 14.5V12.6C9 12.4 9.1 12.3 9.3 12.3H11V9C11 7.3 12.3 6 14 6H16.7C16.9 6 17 6.1 17 6.3V8.7C17 8.9 16.9 9 16.7 9H14.3C14.1 9 14 9.1 14 9.3Z"></path>
    <path d="M15 22H9C4 22 2 20 2 15V9C2 4 4 2 9 2H15C20 2 22 4 22 9V15C22 20 20 22 15 22Z" stroke-width="1.5" stroke-linecap="round" stroke-linejoin="round"></path>
  </symbol>
</svg>
